<?xml version="1.0" encoding="UTF-8" standalone="no"?>
<svg
   width="956.58215"
   height="947.7511"
   viewBox="0 0 956.58215 947.7511"
   version="1.1"
   xml:space="preserve"
   style="clip-rule:evenodd;fill-rule:evenodd;stroke-linecap:round;stroke-linejoin:round;stroke-miterlimit:1.5"
   id="svg13"
   sodipodi:docname="roco_sq.svg"
   inkscape:export-filename="roco_sq.png"
   inkscape:export-xdpi="96"
   inkscape:export-ydpi="96"
   inkscape:version="1.3.2 (091e20ef0f, 2023-11-25, custom)"
   xmlns:inkscape="http://www.inkscape.org/namespaces/inkscape"
   xmlns:sodipodi="http://sodipodi.sourceforge.net/DTD/sodipodi-0.dtd"
   xmlns="http://www.w3.org/2000/svg"
   xmlns:svg="http://www.w3.org/2000/svg"><defs
   id="defs13" /><sodipodi:namedview
   id="namedview13"
   pagecolor="#ffffff"
   bordercolor="#000000"
   borderopacity="0.25"
   inkscape:showpageshadow="2"
   inkscape:pageopacity="0.0"
   inkscape:pagecheckerboard="0"
   inkscape:deskcolor="#d1d1d1"
   inkscape:zoom="0.39633333"
   inkscape:cx="-280.06728"
   inkscape:cy="271.23633"
   inkscape:window-width="2560"
   inkscape:window-height="1403"
   inkscape:window-x="0"
   inkscape:window-y="0"
   inkscape:window-maximized="1"
   inkscape:current-layer="svg13" />
    
    
    
    
    
    
    
    
    
    
    
    
    <g
   id="g14"
   transform="rotate(45.400164,1605.3601,586.87366)"><g
     transform="matrix(-0.363985,0,0,-0.326775,1289.7924,1996.4647)"
     id="g1">
        <path
   d="M 1470.19,1449.93 C 1390.78,1309.82 1270.45,1062.59 1275.37,808 1281.94,468.088 1529,344 1529,344 c 0,0 248.44,126.088 255,466 4.91,254.49 -114.96,500.5 -194.19,640.09 -18.34,-4.56 -38.7,-7.09 -60.12,-7.09 -21.19,0 -41.32,2.48 -59.5,6.93 z"
   style="fill:#d94b00;fill-opacity:0.77"
   id="path1" />
    </g><g
     transform="matrix(-0.258463,0,0,-0.253325,1128.3724,1930.5747)"
     id="g2">
        <path
   d="M 1470.19,1449.93 C 1390.78,1309.82 1270.45,1062.59 1275.37,808 1281.94,468.088 1529,344 1529,344 c 0,0 248.44,126.088 255,466 4.91,254.49 -114.96,500.5 -194.19,640.09 -18.34,-4.56 -38.7,-7.09 -60.12,-7.09 -21.19,0 -41.32,2.48 -59.5,6.93 z"
   style="fill:#cbc900;fill-opacity:0.83"
   id="path2" />
    </g><g
     transform="matrix(0.84808242,0,0,0.77321744,-563.34594,395.65419)"
     id="g3">
        <path
   d="M 1470.19,1449.93 C 1390.78,1309.82 1270.45,1062.59 1275.37,808 1281.94,468.088 1529,344 1529,344 c 0,0 248.44,126.088 255,466 4.91,254.49 -114.96,500.5 -194.19,640.09 -18.34,-4.56 -38.7,-7.09 -60.12,-7.09 -21.19,0 -41.32,2.48 -59.5,6.93 z"
   style="fill:#646464;fill-opacity:0.9"
   id="path3" />
    </g><g
     transform="matrix(0.66506381,0,0,0.68061,-297.69778,389.24674)"
     id="g4">
        <path
   d="m 1873.48,1121.16 c 78.9,5.02 434.1,481.86 -20.31,923.41 0,0 52.2,-462.03 -110.45,-550.41 50.36,-109.68 98.94,-236.97 130.76,-373 z"
   style="fill:#cdcdcd"
   id="path4" />
    </g><g
     transform="matrix(0.66506381,0,0,0.68061,-296.71136,389.24674)"
     id="g5">
        <path
   d="m 1357.29,1492 c -167.71,82.73 -114.63,552.57 -114.63,552.57 -464.569,-451.43 -82.9,-939.75 -15.42,-923.03 31.83,134.9 80.05,261.31 130.05,370.46 z"
   style="fill:#cdcdcd"
   id="path5" />
    </g><g
     transform="matrix(1.41694,0,0,1.41694,-197.64546,-289.49081)"
     id="g7">
        <path
   d="m 551,842 14,30 -14,26 14,24 -14,23 14,25 -14,26 14,24 -14,33 29,-10 h 178 l 29,10 -20,-36 11,-18 -21,-22 -29,-98 -33,5 -20,-22 -30,10 -29,-23 h -36 z"
   style="fill:#ffffff;stroke:#010000;stroke-width:0.71px"
   id="path7" />
    </g><g
     transform="matrix(1.41694,0,0,1.41694,-197.64546,-289.49081)"
     id="g8">
        <path
   d="m 580,849 -1,194 H 757 V 850 Z"
   style="fill:#ffffff;stroke:#010000;stroke-width:0.71px"
   id="path8" />
    </g><g
     transform="matrix(1.41694,0,0,1.41694,-197.64546,-289.49081)"
     id="g9">
        <rect
   x="593"
   y="862"
   width="149"
   height="170"
   style="fill:#262626;fill-opacity:0.83;stroke:#010000;stroke-width:0.71px"
   id="rect8" />
    </g><g
     transform="matrix(1.41694,0,0,1.41694,-197.64546,-289.49081)"
     id="g10">
        <path
   d="m 616,849 141,1 v 128 l -29,-99 -33,5 -20,-22 -30,10 z"
   style="fill:#ffffff;stroke:#010000;stroke-width:0.71px"
   id="path9" />
    </g><g
     transform="matrix(0.905414,0.825433,-0.858923,0.94215,791.10454,-428.47681)"
     id="g11">
        <ellipse
   cx="838"
   cy="856.5"
   rx="10"
   ry="13.5"
   style="fill:#ffffff;stroke:#010000;stroke-width:0.8px"
   id="ellipse10" />
    </g><g
     transform="matrix(0.905414,0.825433,-0.858923,0.94215,796.77254,-473.81881)"
     id="g12">
        <ellipse
   cx="838"
   cy="856.5"
   rx="10"
   ry="13.5"
   style="fill:#ffffff;stroke:#010000;stroke-width:0.8px"
   id="ellipse11" />
    </g><g
     transform="matrix(1.41694,0,0,1.41694,-186.31046,-289.49081)"
     id="g13">
        <path
   d="m 668,934 c 0,0 -2.297,12.221 7,5 7.086,-5.503 11.279,-18.792 11,-20 -0.279,-1.208 4.617,-19.198 -24,-20 -28.617,-0.802 -50,0 -50,0 0,0 10.055,36.47 7,70 -1.424,15.622 -23.914,29.979 -22,30 40.137,0.441 71.297,-2.287 78,-7 12.826,-9.018 -14.723,-9.396 -31,-9 -9.425,0.229 -7.9,-13.483 -9,-19 -5.733,-28.742 -3.949,-34.836 9,-45 13.742,-10.786 24,-3 24,-3 0,0 8.721,0.435 0,18 z"
   style="fill:#ffffff;stroke:#010000;stroke-width:0.71px"
   id="path12" />
    </g></g>
</svg>
