<?xml version="1.0" encoding="UTF-8" standalone="no"?>
<!DOCTYPE svg PUBLIC "-//W3C//DTD SVG 1.1//EN" "http://www.w3.org/Graphics/SVG/1.1/DTD/svg11.dtd">
<svg width="100%" height="100%" viewBox="0 0 1500 3000" version="1.1" xmlns="http://www.w3.org/2000/svg" xmlns:xlink="http://www.w3.org/1999/xlink" xml:space="preserve" xmlns:serif="http://www.serif.com/" style="fill-rule:evenodd;clip-rule:evenodd;stroke-linecap:round;stroke-linejoin:round;stroke-miterlimit:1.5;">
    <g transform="matrix(-0.363985,-4.45753e-17,4.00184e-17,-0.326775,1320.75,2146.31)">
        <path d="M1470.19,1449.93C1390.78,1309.82 1270.45,1062.59 1275.37,808C1281.94,468.088 1529,344 1529,344C1529,344 1777.44,470.088 1784,810C1788.91,1064.49 1669.04,1310.5 1589.81,1450.09C1571.47,1445.53 1551.11,1443 1529.69,1443C1508.5,1443 1488.37,1445.48 1470.19,1449.93Z" style="fill:rgb(217,75,0);fill-opacity:0.77;"/>
    </g>
    <g transform="matrix(-0.258463,-3.16526e-17,3.10234e-17,-0.253325,1159.33,2080.42)">
        <path d="M1470.19,1449.93C1390.78,1309.82 1270.45,1062.59 1275.37,808C1281.94,468.088 1529,344 1529,344C1529,344 1777.44,470.088 1784,810C1788.91,1064.49 1669.04,1310.5 1589.81,1450.09C1571.47,1445.53 1551.11,1443 1529.69,1443C1508.5,1443 1488.37,1445.48 1470.19,1449.93Z" style="fill:rgb(203,201,0);fill-opacity:0.83;"/>
    </g>
    <g transform="matrix(1.41694,0,0,1.41694,-1403.5,-382.427)">
        <path d="M1470.19,1449.93C1390.78,1309.82 1270.45,1062.59 1275.37,808C1281.94,468.088 1529,344 1529,344C1529,344 1777.44,470.088 1784,810C1788.91,1064.49 1669.04,1310.5 1589.81,1450.09C1571.47,1445.53 1551.11,1443 1529.69,1443C1508.5,1443 1488.37,1445.48 1470.19,1449.93Z" style="fill:rgb(100,100,100);fill-opacity:0.9;"/>
    </g>
    <g transform="matrix(1,0,0,1,-786,-31)">
        <path d="M1873.48,1121.16C1952.38,1126.18 2307.58,1603.02 1853.17,2044.57C1853.17,2044.57 1905.37,1582.54 1742.72,1494.16C1793.08,1384.48 1841.66,1257.19 1873.48,1121.16Z" style="fill:rgb(205,205,205);"/>
    </g>
    <g transform="matrix(1,0,0,1,-786,-31)">
        <path d="M1357.29,1492C1189.58,1574.73 1242.66,2044.57 1242.66,2044.57C778.091,1593.14 1159.76,1104.82 1227.24,1121.54C1259.07,1256.44 1307.29,1382.85 1357.29,1492Z" style="fill:rgb(205,205,205);"/>
    </g>
    <g transform="matrix(-0.0608304,1.41563,-1.41563,-0.0608304,3527.21,412.138)">
        <path d="M1574.65,1760.29C1582.99,1751.31 1596.74,1749 1607.86,1755.5C1600.38,1742.39 1604.7,1725.69 1617.5,1718.22C1630.3,1710.74 1646.75,1715.31 1654.23,1728.41C1654.23,1713.28 1666.22,1701 1681,1701C1695.78,1701 1707.77,1713.28 1707.77,1728.41C1715.25,1715.31 1731.7,1710.74 1744.5,1718.22C1757.3,1725.69 1761.62,1742.39 1754.14,1755.5C1767.09,1747.93 1783.6,1752.3 1790.99,1765.25C1798.37,1778.2 1793.86,1794.85 1780.91,1802.41C1795.86,1802.41 1808,1814.55 1808,1829.5C1808,1844.45 1795.86,1856.59 1780.91,1856.59C1793.86,1864.15 1798.37,1880.8 1790.99,1893.75C1783.6,1906.7 1767.09,1911.07 1754.14,1903.51C1756.94,1908.42 1758.09,1913.84 1757.75,1919.09C1768.38,1917.48 1779.34,1922.36 1784.99,1932.25C1792.37,1945.2 1787.86,1961.85 1774.91,1969.41C1789.86,1969.41 1802,1981.55 1802,1996.5C1802,2011.45 1789.86,2023.59 1774.91,2023.59C1787.86,2031.15 1792.37,2047.8 1784.99,2060.75C1777.6,2073.7 1761.09,2078.07 1748.14,2070.51C1755.62,2083.61 1751.3,2100.31 1738.5,2107.78C1725.7,2115.26 1709.25,2110.69 1701.77,2097.59C1701.77,2112.72 1689.78,2125 1675,2125C1660.22,2125 1648.23,2112.72 1648.23,2097.59C1640.75,2110.69 1624.3,2115.26 1611.5,2107.78C1598.7,2100.31 1594.38,2083.61 1601.86,2070.51C1588.91,2078.07 1572.4,2073.7 1565.02,2060.75C1557.63,2047.8 1562.14,2031.15 1575.09,2023.59C1564.37,2023.59 1555.1,2017.35 1550.71,2008.31C1542.41,2017.62 1528.42,2020.1 1517.14,2013.51C1524.62,2026.61 1520.3,2043.31 1507.5,2050.78C1494.7,2058.26 1478.25,2053.69 1470.77,2040.59C1470.77,2055.72 1458.78,2068 1444,2068C1429.22,2068 1417.23,2055.72 1417.23,2040.59C1409.75,2053.69 1393.3,2058.26 1380.5,2050.78C1367.7,2043.31 1363.38,2026.61 1370.86,2013.51C1357.91,2021.07 1341.4,2016.7 1334.02,2003.75C1326.72,1990.97 1331.03,1974.58 1343.59,1966.89L1343.46,1966.65L1343.42,1966.58C1338.94,1966.47 1334.72,1965.27 1331.03,1963.23C1322.87,1968.37 1312.32,1968.93 1303.5,1963.78C1290.7,1956.31 1286.38,1939.61 1293.86,1926.51C1280.91,1934.07 1264.4,1929.7 1257.02,1916.75C1249.63,1903.8 1254.14,1887.15 1267.09,1879.59C1252.14,1879.59 1240,1867.45 1240,1852.5C1240,1837.55 1252.14,1825.41 1267.09,1825.41C1254.14,1817.85 1249.63,1801.2 1257.02,1788.25C1264.4,1775.3 1280.91,1770.93 1293.86,1778.5C1286.38,1765.39 1290.7,1748.69 1303.5,1741.22C1316.3,1733.74 1332.75,1738.31 1340.23,1751.41C1340.23,1736.28 1352.22,1724 1367,1724C1381.78,1724 1393.77,1736.28 1393.77,1751.41C1401.25,1738.31 1417.7,1733.74 1430.5,1741.22C1443.3,1748.69 1447.62,1765.39 1440.14,1778.5C1452.71,1771.15 1468.63,1775.06 1476.31,1787.13C1477.1,1778.67 1481.74,1770.75 1489.5,1766.22C1502.3,1758.74 1518.75,1763.31 1526.23,1776.41C1526.23,1761.28 1538.22,1749 1553,1749C1561.89,1749 1569.78,1753.45 1574.65,1760.29Z" style="fill:rgb(178,178,178);fill-opacity:0.78;"/>
    </g>
    <g transform="matrix(1.41694,0,0,1.41694,-179.269,-634.642)">
        <path d="M551,842L565,872L551,898L565,922L551,945L565,970L551,996L565,1020L551,1053L580,1043L758,1043L787,1053L767,1017L778,999L757,977L728,879L695,884L675,862L645,872L616,849L580,849L551,842Z" style="fill:white;stroke:rgb(1,0,0);stroke-width:0.71px;"/>
    </g>
    <g transform="matrix(1.41694,4.44089e-16,-1.11022e-15,1.41694,-179.269,-634.642)">
        <path d="M580,849L579,1043L757,1043L757,850L580,849Z" style="fill:white;stroke:rgb(1,0,0);stroke-width:0.71px;"/>
    </g>
    <g transform="matrix(1.41694,4.44089e-16,-1.11022e-15,1.41694,-179.269,-634.642)">
        <rect x="593" y="862" width="149" height="170" style="fill:rgb(38,38,38);fill-opacity:0.83;stroke:rgb(1,0,0);stroke-width:0.71px;"/>
    </g>
    <g transform="matrix(1.41694,1.11022e-16,-1.11022e-16,1.41694,-179.269,-634.642)">
        <path d="M616,849L757,850L757,978L728,879L695,884L675,862L645,872L616,849Z" style="fill:white;stroke:rgb(1,0,0);stroke-width:0.71px;"/>
    </g>
    <g transform="matrix(0.905414,0.825433,-0.858923,0.94215,809.481,-773.628)">
        <ellipse cx="838" cy="856.5" rx="10" ry="13.5" style="fill:white;stroke:rgb(1,0,0);stroke-width:0.8px;"/>
    </g>
    <g transform="matrix(0.905414,0.825433,-0.858923,0.94215,815.149,-818.97)">
        <ellipse cx="838" cy="856.5" rx="10" ry="13.5" style="fill:white;stroke:rgb(1,0,0);stroke-width:0.8px;"/>
    </g>
    <g transform="matrix(1.41694,0,0,1.41694,-167.934,-634.642)">
        <path d="M668,934C668,934 665.703,946.221 675,939C682.086,933.497 686.279,920.208 686,919C685.721,917.792 690.617,899.802 662,899C633.383,898.198 612,899 612,899C612,899 622.055,935.47 619,969C617.576,984.622 595.086,998.979 597,999C637.137,999.441 668.297,996.713 675,992C687.826,982.982 660.277,982.604 644,983C634.575,983.229 636.1,969.517 635,964C629.267,935.258 631.051,929.164 644,919C657.742,908.214 668,916 668,916C668,916 676.721,916.435 668,934Z" style="fill:white;stroke:rgb(1,0,0);stroke-width:0.71px;"/>
    </g>
</svg>
